<mxfile host="app.diagrams.net" modified="2021-09-08T03:42:52.922Z" agent="5.0 (Macintosh; Intel Mac OS X 10_14_6) AppleWebKit/537.36 (KHTML, like Gecko) Chrome/93.0.4577.63 Safari/537.36" etag="gh84o4ha9Gq3xqp6Sfk_" version="14.9.4" type="github">
  <diagram id="OvMRXYn6M10YvkBaGsyY" name="Page-1">
    <mxGraphModel dx="1584" dy="1642" grid="1" gridSize="10" guides="1" tooltips="1" connect="1" arrows="1" fold="1" page="1" pageScale="1" pageWidth="827" pageHeight="1169" math="0" shadow="0">
      <root>
        <mxCell id="0" />
        <mxCell id="1" parent="0" />
        <mxCell id="duqEzK9psxRRmspVJ3qn-2" value="" style="rounded=1;arcSize=10;dashed=1;strokeColor=#F59D56;fillColor=none;gradientColor=none;dashPattern=8 4;strokeWidth=2;align=center;verticalAlign=top;fontSize=20;" vertex="1" parent="1">
          <mxGeometry x="-50" y="60" width="1120" height="710" as="geometry" />
        </mxCell>
        <mxCell id="duqEzK9psxRRmspVJ3qn-43" value="" style="group;dashed=1;" vertex="1" connectable="0" parent="1">
          <mxGeometry x="-20" y="209" width="590" height="301" as="geometry" />
        </mxCell>
        <mxCell id="duqEzK9psxRRmspVJ3qn-41" value="主要应用" style="fillColor=none;verticalAlign=top;fontStyle=0;fontColor=#147EBA;fontSize=15;strokeColor=#5184F3;" vertex="1" parent="duqEzK9psxRRmspVJ3qn-43">
          <mxGeometry width="590" height="301" as="geometry" />
        </mxCell>
        <mxCell id="duqEzK9psxRRmspVJ3qn-84" value="" style="points=[[0,0,0],[0.25,0,0],[0.5,0,0],[0.75,0,0],[1,0,0],[1,0.25,0],[1,0.5,0],[1,0.75,0],[1,1,0],[0.75,1,0],[0.5,1,0],[0.25,1,0],[0,1,0],[0,0.75,0],[0,0.5,0],[0,0.25,0]];rounded=1;absoluteArcSize=1;arcSize=2;html=1;strokeColor=none;gradientColor=none;shadow=0;dashed=0;fontSize=12;fontColor=#9E9E9E;align=left;verticalAlign=top;spacing=10;spacingTop=-4;glass=0;sketch=0;fillColor=#42B4FF;" vertex="1" parent="duqEzK9psxRRmspVJ3qn-43">
          <mxGeometry x="200" y="30" width="390" height="177.96" as="geometry" />
        </mxCell>
        <mxCell id="duqEzK9psxRRmspVJ3qn-42" value="" style="endArrow=none;html=1;labelBackgroundColor=#21CBFF;fontSize=15;fontColor=#21CBFF;exitX=-0.004;exitY=0.095;exitDx=0;exitDy=0;exitPerimeter=0;" edge="1" parent="duqEzK9psxRRmspVJ3qn-43" source="duqEzK9psxRRmspVJ3qn-41">
          <mxGeometry width="50" height="50" relative="1" as="geometry">
            <mxPoint x="1" y="44.63103448275862" as="sourcePoint" />
            <mxPoint x="591" y="27.363636363636363" as="targetPoint" />
          </mxGeometry>
        </mxCell>
        <mxCell id="duqEzK9psxRRmspVJ3qn-64" value="" style="points=[[0,0,0],[0.25,0,0],[0.5,0,0],[0.75,0,0],[1,0,0],[1,0.25,0],[1,0.5,0],[1,0.75,0],[1,1,0],[0.75,1,0],[0.5,1,0],[0.25,1,0],[0,1,0],[0,0.75,0],[0,0.5,0],[0,0.25,0]];rounded=1;absoluteArcSize=1;arcSize=2;html=1;strokeColor=none;gradientColor=none;shadow=0;dashed=0;fontSize=12;fontColor=#9E9E9E;align=left;verticalAlign=top;spacing=10;spacingTop=-4;fillColor=#FFF8E1;glass=0;sketch=0;" vertex="1" parent="duqEzK9psxRRmspVJ3qn-43">
          <mxGeometry x="200" y="209.78787878787878" width="390" height="91.21212121212122" as="geometry" />
        </mxCell>
        <mxCell id="duqEzK9psxRRmspVJ3qn-65" value="" style="shadow=1;strokeWidth=1;rounded=1;absoluteArcSize=1;arcSize=2;glass=0;sketch=0;fontSize=15;fontColor=#21CBFF;gradientColor=none;align=center;verticalAlign=top;strokeColor=#7D7D7D;" vertex="1" parent="duqEzK9psxRRmspVJ3qn-43">
          <mxGeometry x="215" y="231.80648484848484" width="160" height="47.17490909090909" as="geometry" />
        </mxCell>
        <mxCell id="duqEzK9psxRRmspVJ3qn-66" value="&lt;font color=&quot;#000000&quot;&gt;一期应用1&lt;br&gt;&lt;/font&gt;http://10.60.17.80" style="dashed=0;connectable=0;html=1;fillColor=#5184F3;strokeColor=none;shape=mxgraph.gcp2.hexIcon;prIcon=placeholder;part=1;labelPosition=right;verticalLabelPosition=middle;align=left;verticalAlign=middle;spacingLeft=5;fontColor=#999999;fontSize=12;" vertex="1" parent="duqEzK9psxRRmspVJ3qn-65">
          <mxGeometry y="0.5" width="44" height="39" relative="1" as="geometry">
            <mxPoint x="5" y="-19.5" as="offset" />
          </mxGeometry>
        </mxCell>
        <mxCell id="duqEzK9psxRRmspVJ3qn-81" value="" style="shadow=1;strokeWidth=1;rounded=1;absoluteArcSize=1;arcSize=2;glass=0;sketch=0;fontSize=15;fontColor=#21CBFF;gradientColor=none;align=center;verticalAlign=top;strokeColor=#7D7D7D;" vertex="1" parent="duqEzK9psxRRmspVJ3qn-43">
          <mxGeometry x="410" y="231.80648484848484" width="160" height="47.17490909090909" as="geometry" />
        </mxCell>
        <mxCell id="duqEzK9psxRRmspVJ3qn-82" value="&lt;font color=&quot;#000000&quot;&gt;一期应用2&lt;br&gt;&lt;/font&gt;http://10.60.17.86" style="dashed=0;connectable=0;html=1;fillColor=#5184F3;strokeColor=none;shape=mxgraph.gcp2.hexIcon;prIcon=placeholder;part=1;labelPosition=right;verticalLabelPosition=middle;align=left;verticalAlign=middle;spacingLeft=5;fontColor=#999999;fontSize=12;" vertex="1" parent="duqEzK9psxRRmspVJ3qn-81">
          <mxGeometry y="0.5" width="44" height="39" relative="1" as="geometry">
            <mxPoint x="5" y="-19.5" as="offset" />
          </mxGeometry>
        </mxCell>
        <mxCell id="duqEzK9psxRRmspVJ3qn-83" value="" style="shape=image;html=1;verticalAlign=top;verticalLabelPosition=bottom;labelBackgroundColor=#ffffff;imageAspect=0;aspect=fixed;image=https://cdn4.iconfinder.com/data/icons/logos-brands-5/24/nginx-128.png;rounded=1;shadow=1;glass=0;dashed=1;sketch=0;fontSize=15;fontColor=#21CBFF;strokeColor=#000000;fillColor=#E6E6E6;gradientColor=none;" vertex="1" parent="duqEzK9psxRRmspVJ3qn-43">
          <mxGeometry x="40" y="91.61969696969697" width="54.72727272727273" height="54.72727272727273" as="geometry" />
        </mxCell>
        <mxCell id="duqEzK9psxRRmspVJ3qn-87" value="" style="shadow=1;strokeWidth=1;rounded=1;absoluteArcSize=1;arcSize=2;glass=0;sketch=0;fontSize=15;fontColor=#21CBFF;gradientColor=none;align=center;verticalAlign=top;strokeColor=#7D7D7D;" vertex="1" parent="duqEzK9psxRRmspVJ3qn-43">
          <mxGeometry x="410" y="51.00181818181818" width="160" height="47.17490909090909" as="geometry" />
        </mxCell>
        <mxCell id="duqEzK9psxRRmspVJ3qn-88" value="&lt;span style=&quot;color: rgb(0 , 0 , 0)&quot;&gt;二期&lt;/span&gt;&lt;font color=&quot;#000000&quot;&gt;应用2&lt;br&gt;&lt;/font&gt;10.60.17.11:8001" style="dashed=0;connectable=0;html=1;fillColor=#5184F3;strokeColor=none;shape=mxgraph.gcp2.hexIcon;prIcon=placeholder;part=1;labelPosition=right;verticalLabelPosition=middle;align=left;verticalAlign=middle;spacingLeft=5;fontColor=#999999;fontSize=12;" vertex="1" parent="duqEzK9psxRRmspVJ3qn-87">
          <mxGeometry y="0.5" width="44" height="39" relative="1" as="geometry">
            <mxPoint x="5" y="-19.5" as="offset" />
          </mxGeometry>
        </mxCell>
        <mxCell id="duqEzK9psxRRmspVJ3qn-85" value="" style="shadow=1;strokeWidth=1;rounded=1;absoluteArcSize=1;arcSize=2;glass=0;sketch=0;fontSize=15;fontColor=#21CBFF;gradientColor=none;align=center;verticalAlign=top;strokeColor=#7D7D7D;" vertex="1" parent="duqEzK9psxRRmspVJ3qn-43">
          <mxGeometry x="215" y="51.00181818181821" width="160" height="47.17490909090909" as="geometry" />
        </mxCell>
        <mxCell id="duqEzK9psxRRmspVJ3qn-86" value="&lt;font color=&quot;#000000&quot;&gt;二期应用1&lt;/font&gt;&lt;br&gt;10.60.17.10:8001" style="dashed=0;connectable=0;html=1;fillColor=#5184F3;strokeColor=none;shape=mxgraph.gcp2.hexIcon;prIcon=placeholder;part=1;labelPosition=right;verticalLabelPosition=middle;align=left;verticalAlign=middle;spacingLeft=5;fontColor=#999999;fontSize=12;" vertex="1" parent="duqEzK9psxRRmspVJ3qn-85">
          <mxGeometry y="0.5" width="44" height="39" relative="1" as="geometry">
            <mxPoint x="5" y="-19.5" as="offset" />
          </mxGeometry>
        </mxCell>
        <mxCell id="duqEzK9psxRRmspVJ3qn-91" value="" style="shadow=1;strokeWidth=1;rounded=1;absoluteArcSize=1;arcSize=2;glass=0;sketch=0;fontSize=15;fontColor=#21CBFF;gradientColor=none;align=center;verticalAlign=top;strokeColor=#7D7D7D;dashed=1;fillColor=#E6E6E6;" vertex="1" parent="duqEzK9psxRRmspVJ3qn-43">
          <mxGeometry x="410" y="141.00120062695925" width="160" height="47.17490909090909" as="geometry" />
        </mxCell>
        <mxCell id="duqEzK9psxRRmspVJ3qn-92" value="&lt;span style=&quot;color: rgb(0 , 0 , 0)&quot;&gt;二期&lt;/span&gt;&lt;font color=&quot;#000000&quot;&gt;应用4 (备机)&lt;br&gt;&lt;/font&gt;10.60.17.13:8001" style="dashed=0;connectable=0;html=1;fillColor=#5184F3;strokeColor=none;shape=mxgraph.gcp2.hexIcon;prIcon=placeholder;part=1;labelPosition=right;verticalLabelPosition=middle;align=left;verticalAlign=middle;spacingLeft=5;fontColor=#999999;fontSize=12;" vertex="1" parent="duqEzK9psxRRmspVJ3qn-91">
          <mxGeometry y="0.5" width="44" height="39" relative="1" as="geometry">
            <mxPoint x="5" y="-19.5" as="offset" />
          </mxGeometry>
        </mxCell>
        <mxCell id="duqEzK9psxRRmspVJ3qn-89" value="" style="shadow=1;strokeWidth=1;rounded=1;absoluteArcSize=1;arcSize=2;glass=0;sketch=0;fontSize=15;fontColor=#21CBFF;gradientColor=none;align=center;verticalAlign=top;strokeColor=#7D7D7D;" vertex="1" parent="duqEzK9psxRRmspVJ3qn-43">
          <mxGeometry x="215" y="141.00151515151515" width="160" height="47.17490909090909" as="geometry" />
        </mxCell>
        <mxCell id="duqEzK9psxRRmspVJ3qn-90" value="&lt;span style=&quot;color: rgb(0 , 0 , 0)&quot;&gt;二期&lt;/span&gt;&lt;font color=&quot;#000000&quot;&gt;应用3&lt;br&gt;&lt;/font&gt;10.60.17.12:8001" style="dashed=0;connectable=0;html=1;fillColor=#5184F3;strokeColor=none;shape=mxgraph.gcp2.hexIcon;prIcon=placeholder;part=1;labelPosition=right;verticalLabelPosition=middle;align=left;verticalAlign=middle;spacingLeft=5;fontColor=#999999;fontSize=12;" vertex="1" parent="duqEzK9psxRRmspVJ3qn-89">
          <mxGeometry y="0.5" width="44" height="39" relative="1" as="geometry">
            <mxPoint x="5" y="-19.5" as="offset" />
          </mxGeometry>
        </mxCell>
        <mxCell id="duqEzK9psxRRmspVJ3qn-35" style="edgeStyle=orthogonalEdgeStyle;rounded=0;orthogonalLoop=1;jettySize=auto;html=1;labelBackgroundColor=#21CBFF;fontSize=15;fontColor=#21CBFF;" edge="1" parent="1" source="duqEzK9psxRRmspVJ3qn-1" target="duqEzK9psxRRmspVJ3qn-33">
          <mxGeometry relative="1" as="geometry">
            <Array as="points" />
          </mxGeometry>
        </mxCell>
        <mxCell id="duqEzK9psxRRmspVJ3qn-37" value="DG" style="edgeLabel;html=1;align=center;verticalAlign=middle;resizable=0;points=[];fontSize=15;fontColor=#21CBFF;" vertex="1" connectable="0" parent="duqEzK9psxRRmspVJ3qn-35">
          <mxGeometry x="0.192" y="5" relative="1" as="geometry">
            <mxPoint y="75" as="offset" />
          </mxGeometry>
        </mxCell>
        <mxCell id="duqEzK9psxRRmspVJ3qn-40" value="DG" style="edgeLabel;html=1;align=center;verticalAlign=middle;resizable=0;points=[];fontSize=15;fontColor=#21CBFF;" vertex="1" connectable="0" parent="duqEzK9psxRRmspVJ3qn-35">
          <mxGeometry x="0.1008" y="2" relative="1" as="geometry">
            <mxPoint as="offset" />
          </mxGeometry>
        </mxCell>
        <mxCell id="duqEzK9psxRRmspVJ3qn-1" value="&lt;font style=&quot;font-size: 15px&quot;&gt;10.60.17.15:1521/orcl&lt;/font&gt;" style="outlineConnect=0;fontColor=#232F3E;gradientColor=none;fillColor=#3334B9;strokeColor=none;dashed=0;verticalLabelPosition=bottom;verticalAlign=top;align=center;html=1;fontSize=12;fontStyle=0;aspect=fixed;pointerEvents=1;shape=mxgraph.aws4.rds_oracle_instance;" vertex="1" parent="1">
          <mxGeometry x="910" y="390" width="78" height="78" as="geometry" />
        </mxCell>
        <mxCell id="duqEzK9psxRRmspVJ3qn-21" value="" style="shadow=1;strokeWidth=1;rounded=1;absoluteArcSize=1;arcSize=2;fontSize=20;fontColor=#21CBFF;align=center;verticalAlign=top;strokeColor=#828282;" vertex="1" parent="1">
          <mxGeometry x="10" y="90" width="165" height="54.5" as="geometry" />
        </mxCell>
        <mxCell id="duqEzK9psxRRmspVJ3qn-22" value="规格比系统" style="dashed=0;connectable=0;html=1;fillColor=#5184F3;strokeColor=none;shape=mxgraph.gcp2.hexIcon;prIcon=apigee_api_platform;part=1;labelPosition=right;verticalLabelPosition=middle;align=left;verticalAlign=middle;spacingLeft=5;fontColor=#999999;fontSize=12;" vertex="1" parent="duqEzK9psxRRmspVJ3qn-21">
          <mxGeometry y="0.5" width="44" height="39" relative="1" as="geometry">
            <mxPoint x="5" y="-19.5" as="offset" />
          </mxGeometry>
        </mxCell>
        <mxCell id="duqEzK9psxRRmspVJ3qn-10" value="&lt;font style=&quot;font-size: 11px&quot; color=&quot;#5184f3&quot;&gt;47.100.208.66-aliyun&lt;/font&gt;" style="html=1;verticalLabelPosition=bottom;align=center;labelBackgroundColor=#ffffff;verticalAlign=top;strokeWidth=2;strokeColor=#0080F0;shadow=0;dashed=0;shape=mxgraph.ios7.icons.cloud;fontSize=20;fontColor=#21CBFF;" vertex="1" parent="duqEzK9psxRRmspVJ3qn-21">
          <mxGeometry x="-35" y="24.5" width="60" height="30" as="geometry" />
        </mxCell>
        <mxCell id="duqEzK9psxRRmspVJ3qn-13" value="" style="endArrow=none;html=1;labelBackgroundColor=#21CBFF;fontSize=20;fontColor=#21CBFF;strokeColor=#ABABAB;" edge="1" parent="1">
          <mxGeometry width="50" height="50" relative="1" as="geometry">
            <mxPoint x="171" y="1161.4285714285713" as="sourcePoint" />
            <mxPoint x="171" y="-60" as="targetPoint" />
          </mxGeometry>
        </mxCell>
        <mxCell id="duqEzK9psxRRmspVJ3qn-14" value="&lt;font style=&quot;font-size: 20px&quot; color=&quot;#97d077&quot;&gt;public network&lt;/font&gt;" style="text;strokeColor=none;fillColor=none;html=1;fontSize=24;fontStyle=1;verticalAlign=middle;align=center;fontColor=#21CBFF;" vertex="1" parent="1">
          <mxGeometry x="10" y="-40" width="100" height="40" as="geometry" />
        </mxCell>
        <mxCell id="duqEzK9psxRRmspVJ3qn-23" value="10.60.17.71:1521/orcl" style="outlineConnect=0;fontColor=#232F3E;gradientColor=none;fillColor=#3334B9;strokeColor=none;dashed=0;verticalLabelPosition=bottom;verticalAlign=top;align=center;html=1;fontSize=12;fontStyle=0;aspect=fixed;pointerEvents=1;shape=mxgraph.aws4.rds_oracle_instance;" vertex="1" parent="1">
          <mxGeometry x="910" y="111" width="78" height="78" as="geometry" />
        </mxCell>
        <mxCell id="duqEzK9psxRRmspVJ3qn-29" value="&lt;font style=&quot;font-size: 20px ; font-weight: normal&quot; color=&quot;#5184f3&quot;&gt;private network&lt;/font&gt;" style="text;strokeColor=none;fillColor=none;html=1;fontSize=24;fontStyle=1;verticalAlign=middle;align=center;fontColor=#21CBFF;" vertex="1" parent="1">
          <mxGeometry x="250" y="-40" width="100" height="40" as="geometry" />
        </mxCell>
        <mxCell id="duqEzK9psxRRmspVJ3qn-33" value="&lt;font style=&quot;font-size: 15px&quot;&gt;10.60.17.81:1521/orcl&lt;br&gt;(&lt;span style=&quot;color: rgb(81 , 132 , 243) ; background-color: rgb(255 , 255 , 255)&quot;&gt;只读)&lt;/span&gt;&lt;br&gt;&lt;/font&gt;" style="outlineConnect=0;fontColor=#232F3E;gradientColor=none;fillColor=#3334B9;strokeColor=none;dashed=0;verticalLabelPosition=bottom;verticalAlign=top;align=center;html=1;fontSize=12;fontStyle=0;aspect=fixed;pointerEvents=1;shape=mxgraph.aws4.rds_oracle_instance;" vertex="1" parent="1">
          <mxGeometry x="910" y="630" width="78" height="78" as="geometry" />
        </mxCell>
        <mxCell id="duqEzK9psxRRmspVJ3qn-39" value="" style="group" vertex="1" connectable="0" parent="1">
          <mxGeometry x="-20" y="550" width="590" height="210" as="geometry" />
        </mxCell>
        <mxCell id="duqEzK9psxRRmspVJ3qn-5" value="APP自主安装" style="fillColor=none;strokeColor=#147EBA;verticalAlign=top;fontStyle=0;fontColor=#147EBA;fontSize=15;" vertex="1" parent="duqEzK9psxRRmspVJ3qn-39">
          <mxGeometry width="590" height="210" as="geometry" />
        </mxCell>
        <mxCell id="duqEzK9psxRRmspVJ3qn-26" value="&lt;font style=&quot;font-size: 15px&quot; color=&quot;#5184f3&quot;&gt;http://10.60.18.21&lt;/font&gt;" style="pointerEvents=1;shadow=0;dashed=0;html=1;strokeColor=none;labelPosition=center;verticalLabelPosition=bottom;verticalAlign=top;outlineConnect=0;align=center;shape=mxgraph.office.concepts.upgrade_application;fontSize=20;fontColor=#21CBFF;fillColor=#5184F3;" vertex="1" parent="duqEzK9psxRRmspVJ3qn-39">
          <mxGeometry x="250" y="72.5" width="100" height="60" as="geometry" />
        </mxCell>
        <mxCell id="duqEzK9psxRRmspVJ3qn-28" value="" style="endArrow=none;html=1;labelBackgroundColor=#21CBFF;fontSize=15;fontColor=#21CBFF;exitX=-0.004;exitY=0.161;exitDx=0;exitDy=0;exitPerimeter=0;entryX=1.006;entryY=0.149;entryDx=0;entryDy=0;entryPerimeter=0;" edge="1" parent="duqEzK9psxRRmspVJ3qn-39" source="duqEzK9psxRRmspVJ3qn-5" target="duqEzK9psxRRmspVJ3qn-5">
          <mxGeometry width="50" height="50" relative="1" as="geometry">
            <mxPoint y="50" as="sourcePoint" />
            <mxPoint x="50" as="targetPoint" />
          </mxGeometry>
        </mxCell>
        <mxCell id="duqEzK9psxRRmspVJ3qn-31" value="&lt;font style=&quot;font-size: 15px&quot; color=&quot;#5184f3&quot;&gt;http://10.60.18.21&lt;/font&gt;" style="pointerEvents=1;shadow=0;dashed=0;html=1;strokeColor=none;labelPosition=center;verticalLabelPosition=bottom;verticalAlign=top;outlineConnect=0;align=center;shape=mxgraph.office.concepts.upgrade_application;fontSize=20;fontColor=#21CBFF;fillColor=#5184F3;" vertex="1" parent="duqEzK9psxRRmspVJ3qn-39">
          <mxGeometry x="450" y="72.5" width="100" height="60" as="geometry" />
        </mxCell>
        <mxCell id="duqEzK9psxRRmspVJ3qn-27" value="" style="group" vertex="1" connectable="0" parent="duqEzK9psxRRmspVJ3qn-39">
          <mxGeometry x="20" y="72.5" width="140" height="65" as="geometry" />
        </mxCell>
        <mxCell id="duqEzK9psxRRmspVJ3qn-24" value="" style="pointerEvents=1;shadow=0;dashed=0;html=1;strokeColor=none;labelPosition=center;verticalLabelPosition=bottom;verticalAlign=top;outlineConnect=0;align=center;shape=mxgraph.office.concepts.upgrade_application;fontSize=20;fontColor=#21CBFF;fillColor=#5184F3;" vertex="1" parent="duqEzK9psxRRmspVJ3qn-27">
          <mxGeometry x="40" width="100" height="60" as="geometry" />
        </mxCell>
        <mxCell id="duqEzK9psxRRmspVJ3qn-25" value="&lt;font style=&quot;font-size: 11px&quot; color=&quot;#5184f3&quot;&gt;139.296.78.81-aliyun&lt;/font&gt;" style="html=1;verticalLabelPosition=bottom;align=center;labelBackgroundColor=#ffffff;verticalAlign=top;strokeWidth=2;strokeColor=#0080F0;shadow=0;dashed=0;shape=mxgraph.ios7.icons.cloud;fontSize=20;fontColor=#21CBFF;" vertex="1" parent="duqEzK9psxRRmspVJ3qn-27">
          <mxGeometry y="35" width="60" height="30" as="geometry" />
        </mxCell>
      </root>
    </mxGraphModel>
  </diagram>
</mxfile>
